<mxfile host="Electron" modified="2024-04-22T06:33:16.150Z" agent="Mozilla/5.0 (Windows NT 10.0; Win64; x64) AppleWebKit/537.36 (KHTML, like Gecko) draw.io/24.2.5 Chrome/120.0.6099.109 Electron/28.1.0 Safari/537.36" etag="4D7J7AIocjnGW_0TAcL-" version="24.2.5" type="device">
  <diagram name="페이지-1" id="ij2UINEyuPjC85dfqhO4">
    <mxGraphModel dx="792" dy="827" grid="1" gridSize="10" guides="1" tooltips="1" connect="1" arrows="1" fold="1" page="1" pageScale="1" pageWidth="1169" pageHeight="827" math="0" shadow="0">
      <root>
        <mxCell id="0" />
        <mxCell id="1" parent="0" />
        <mxCell id="iRFj2_RXt6cWEWzTzxnV-1" value="학생" style="rounded=0;whiteSpace=wrap;html=1;" vertex="1" parent="1">
          <mxGeometry x="270" y="250" width="120" height="60" as="geometry" />
        </mxCell>
        <mxCell id="iRFj2_RXt6cWEWzTzxnV-2" value="과정" style="rounded=0;whiteSpace=wrap;html=1;" vertex="1" parent="1">
          <mxGeometry x="650" y="250" width="120" height="60" as="geometry" />
        </mxCell>
        <mxCell id="iRFj2_RXt6cWEWzTzxnV-4" value="" style="edgeStyle=orthogonalEdgeStyle;rounded=0;orthogonalLoop=1;jettySize=auto;html=1;endArrow=none;endFill=0;" edge="1" parent="1" source="iRFj2_RXt6cWEWzTzxnV-3" target="iRFj2_RXt6cWEWzTzxnV-1">
          <mxGeometry relative="1" as="geometry" />
        </mxCell>
        <mxCell id="iRFj2_RXt6cWEWzTzxnV-5" value="" style="edgeStyle=orthogonalEdgeStyle;rounded=0;orthogonalLoop=1;jettySize=auto;html=1;endArrow=none;endFill=0;" edge="1" parent="1" source="iRFj2_RXt6cWEWzTzxnV-3" target="iRFj2_RXt6cWEWzTzxnV-2">
          <mxGeometry relative="1" as="geometry" />
        </mxCell>
        <mxCell id="iRFj2_RXt6cWEWzTzxnV-3" value="등록" style="rhombus;whiteSpace=wrap;html=1;" vertex="1" parent="1">
          <mxGeometry x="460" y="240" width="120" height="80" as="geometry" />
        </mxCell>
        <mxCell id="iRFj2_RXt6cWEWzTzxnV-10" value="" style="edgeStyle=orthogonalEdgeStyle;rounded=0;orthogonalLoop=1;jettySize=auto;html=1;endArrow=none;endFill=0;" edge="1" parent="1" source="iRFj2_RXt6cWEWzTzxnV-6" target="iRFj2_RXt6cWEWzTzxnV-1">
          <mxGeometry relative="1" as="geometry" />
        </mxCell>
        <mxCell id="iRFj2_RXt6cWEWzTzxnV-6" value="&lt;u&gt;학번&lt;/u&gt;" style="ellipse;whiteSpace=wrap;html=1;" vertex="1" parent="1">
          <mxGeometry x="295" y="170" width="70" height="50" as="geometry" />
        </mxCell>
        <mxCell id="iRFj2_RXt6cWEWzTzxnV-11" value="" style="edgeStyle=orthogonalEdgeStyle;rounded=0;orthogonalLoop=1;jettySize=auto;html=1;endArrow=none;endFill=0;" edge="1" parent="1" source="iRFj2_RXt6cWEWzTzxnV-7" target="iRFj2_RXt6cWEWzTzxnV-1">
          <mxGeometry relative="1" as="geometry" />
        </mxCell>
        <mxCell id="iRFj2_RXt6cWEWzTzxnV-7" value="휴대폰" style="ellipse;whiteSpace=wrap;html=1;" vertex="1" parent="1">
          <mxGeometry x="290" y="340" width="80" height="50" as="geometry" />
        </mxCell>
        <mxCell id="iRFj2_RXt6cWEWzTzxnV-9" value="" style="edgeStyle=orthogonalEdgeStyle;rounded=0;orthogonalLoop=1;jettySize=auto;html=1;endArrow=none;endFill=0;" edge="1" parent="1" source="iRFj2_RXt6cWEWzTzxnV-8" target="iRFj2_RXt6cWEWzTzxnV-1">
          <mxGeometry relative="1" as="geometry" />
        </mxCell>
        <mxCell id="iRFj2_RXt6cWEWzTzxnV-8" value="학생이름" style="ellipse;whiteSpace=wrap;html=1;" vertex="1" parent="1">
          <mxGeometry x="150" y="250" width="80" height="60" as="geometry" />
        </mxCell>
        <mxCell id="iRFj2_RXt6cWEWzTzxnV-13" value="" style="edgeStyle=orthogonalEdgeStyle;rounded=0;orthogonalLoop=1;jettySize=auto;html=1;endArrow=none;endFill=0;" edge="1" parent="1" source="iRFj2_RXt6cWEWzTzxnV-12" target="iRFj2_RXt6cWEWzTzxnV-2">
          <mxGeometry relative="1" as="geometry" />
        </mxCell>
        <mxCell id="iRFj2_RXt6cWEWzTzxnV-12" value="&lt;u&gt;과정코드&lt;/u&gt;" style="ellipse;whiteSpace=wrap;html=1;" vertex="1" parent="1">
          <mxGeometry x="675" y="170" width="70" height="50" as="geometry" />
        </mxCell>
        <mxCell id="iRFj2_RXt6cWEWzTzxnV-17" value="" style="edgeStyle=orthogonalEdgeStyle;rounded=0;orthogonalLoop=1;jettySize=auto;html=1;endArrow=none;endFill=0;" edge="1" parent="1" source="iRFj2_RXt6cWEWzTzxnV-14" target="iRFj2_RXt6cWEWzTzxnV-2">
          <mxGeometry relative="1" as="geometry" />
        </mxCell>
        <mxCell id="iRFj2_RXt6cWEWzTzxnV-14" value="과정명" style="ellipse;whiteSpace=wrap;html=1;" vertex="1" parent="1">
          <mxGeometry x="810" y="255" width="70" height="50" as="geometry" />
        </mxCell>
        <mxCell id="iRFj2_RXt6cWEWzTzxnV-16" value="" style="edgeStyle=orthogonalEdgeStyle;rounded=0;orthogonalLoop=1;jettySize=auto;html=1;endArrow=none;endFill=0;" edge="1" parent="1" source="iRFj2_RXt6cWEWzTzxnV-15" target="iRFj2_RXt6cWEWzTzxnV-2">
          <mxGeometry relative="1" as="geometry" />
        </mxCell>
        <mxCell id="iRFj2_RXt6cWEWzTzxnV-15" value="학점점" style="ellipse;whiteSpace=wrap;html=1;" vertex="1" parent="1">
          <mxGeometry x="675" y="340" width="70" height="50" as="geometry" />
        </mxCell>
      </root>
    </mxGraphModel>
  </diagram>
</mxfile>
